<?xml version="1.0" encoding="utf-8"?>
<!-- Generator: Adobe Illustrator 21.0.0, SVG Export Plug-In . SVG Version: 6.00 Build 0)  -->
<svg version="1.1" id="Layer_1" xmlns="http://www.w3.org/2000/svg" xmlns:xlink="http://www.w3.org/1999/xlink" x="0px" y="0px"
	 viewBox="0 0 1395.4 1209.8" style="enable-background:new 0 0 1395.4 1209.8;" xml:space="preserve">
<style type="text/css">
	.st0{fill:#222222;}
</style>
<g>
	<path class="st0" d="M98.7,1128.9c2.3-6.3,4.8-12.6,7-19c72.1-216.3,144.2-432.6,216.2-649c1.4-4.1,3.3-5.1,7.4-5.1
		c55.2,0.1,110.3,0.1,165.5,0c3.6,0,5.6,0.9,7.2,4.3c11,22,22.3,43.9,33.5,65.8c0.7,1.4,1.3,2.9,2.2,4.9c-2.3,0-4.1,0-5.9,0
		c-49.8,0-99.7,0-149.5,0c-2.8,0-4.7,0.1-5.9,3.6c-24.3,73.4-48.8,146.8-73.3,220.1c-0.2,0.5-0.2,1-0.4,2
		c7.2,5.3,14.5,10.6,22.4,16.3c-13.1,20.9-26.3,41.9-39.6,63.1c-2.6-1.8-4.9-3.3-7.7-5.2c-25,75-49.9,149.7-75,224.8
		c330.7,0,660.9,0,991.7,0c-23.3-70-46.6-139.8-69.9-210c-2.8,1.6-5.2,2.9-6.9,3.8c-14.1-16.1-27.9-31.8-42.1-48
		c6.5-7.2,13.5-15.3,21-23c3.2-3.3,3.7-6.1,2.2-10.5c-25.9-77.3-51.7-154.6-77.3-232c-1.4-4.1-3.3-5.1-7.3-5.1
		c-49.5,0.1-99,0.1-148.5,0.1c-1.8,0-3.6,0-5.9,0c0.9-2,1.5-3.5,2.3-4.9c11.2-21.9,22.5-43.8,33.5-65.8c1.7-3.4,3.6-4.3,7.2-4.3
		c55.2,0.1,110.3,0.1,165.5,0c4.1,0,6,1.1,7.3,5.2c52.9,159.2,106,318.4,159.1,477.6c20.7,62,41.3,124,62,186
		c0.5,1.5,1.4,2.9,2.1,4.3c0,0.7,0,1.3,0,2c-400,0-800,0-1200,0C98.7,1130.2,98.7,1129.5,98.7,1128.9z"/>
	<path class="st0" d="M698.6,680.6c-3.2-6.2-5.9-11.5-8.7-16.8c-52.7-103.3-105.5-206.6-158.1-310C475,242.4,540.5,108.1,663.2,84.2
		c100.4-19.5,198.4,45.7,219.1,146.4c8.7,42.1,3.7,83-15.9,121.5c-55,108.3-110.4,216.4-165.7,324.6
		C700.3,677.8,699.7,678.8,698.6,680.6z M811.2,268.2C811,206,760.6,155.8,698.4,155.9c-61.9,0.1-112.1,50.4-112.2,112.4
		c-0.1,62.3,50.6,112.8,113,112.6C761.1,380.6,811.3,330.1,811.2,268.2z"/>
	<path class="st0" d="M365.2,871.7c7-24.2,13.8-48,20.3-70.5c22.4,3.2,44.2,6.4,66.1,9.6c0,23.6,0,48.1,0,73.4
		C421.8,884,393.5,879.7,365.2,871.7z"/>
	<path class="st0" d="M1019.2,761.4c-21.2-7.4-41.8-14.7-63.1-22.2c4.5-22.8,9.2-46.9,14.1-71.8c29,5.3,56,15.2,82.6,28.7
		C1041.4,718.4,1030,740.5,1019.2,761.4z"/>
	<path class="st0" d="M889,736c-23,4.6-45,9.1-67.6,13.7c-7.2-22.8-14.5-46.4-22-70.3c27.4-8.7,55-14.4,83.8-16.7
		C885.1,687.6,887.1,712.1,889,736z"/>
	<path class="st0" d="M690.6,815.9c-12.2-22-24.2-43.4-36.5-65.5c22.7-13.2,45.1-26.3,67.9-39.7c11.7,22.9,22.8,44.8,34.1,66.8
		C734.3,790.3,712.7,802.9,690.6,815.9z"/>
	<path class="st0" d="M616.2,851.4c-26.4,10.5-52.6,18.7-80,24.4c-5.1-24.5-10.2-48.7-15.1-72.3c22.7-7,44.9-13.8,67.7-20.8
		C597.7,805,606.8,828,616.2,851.4z"/>
</g>
</svg>
